<?xml version="1.0" standalone="no"?>
<!DOCTYPE svg PUBLIC "-//W3C//DTD SVG 20010904//EN"
 "http://www.w3.org/TR/2001/REC-SVG-20010904/DTD/svg10.dtd">
<svg version="1.0" xmlns="http://www.w3.org/2000/svg"
 width="578.000000pt" height="611.000000pt" viewBox="0 0 578.000000 611.000000"
 preserveAspectRatio="xMidYMid meet">

<g transform="translate(0.000000,611.000000) scale(0.100000,-0.100000)"
fill="#000000" stroke="none">
<path d="M0 3055 l0 -3055 2890 0 2890 0 0 3055 0 3055 -2890 0 -2890 0 0
-3055z m2763 2541 c41 -52 91 -121 110 -153 46 -76 84 -103 159 -113 67 -10
96 -25 132 -72 14 -18 41 -53 61 -78 19 -25 52 -71 73 -102 20 -31 40 -57 43
-58 3 0 51 50 105 112 130 148 141 158 158 158 15 0 145 -142 217 -237 56 -76
60 -78 137 -102 86 -26 125 -51 159 -100 l28 -40 538 -1 c295 0 537 -2 537 -5
0 -6 -275 -396 -412 -585 -46 -63 -90 -116 -98 -118 -9 -1 -63 27 -120 64
-188 119 -390 234 -413 234 -13 0 -33 -14 -49 -34 -15 -19 -57 -48 -95 -67
-37 -18 -90 -51 -117 -73 -31 -25 -47 -34 -43 -22 4 10 7 21 7 26 0 4 27 37
59 74 66 72 85 117 70 171 -12 42 -44 69 -112 91 -29 9 -59 23 -68 30 -21 19
-19 19 -114 -26 -87 -42 -119 -71 -154 -142 -18 -38 -73 -88 -95 -88 -4 0 1
15 12 33 10 18 34 77 51 130 38 112 55 137 113 165 102 47 121 102 66 188 -67
105 -85 141 -102 209 -11 39 -22 76 -26 84 -5 9 -31 -15 -85 -79 l-78 -92 18
-70 c12 -48 16 -85 11 -124 -7 -63 -31 -128 -44 -120 -5 3 -11 48 -14 100 -5
94 -23 146 -50 146 -17 0 -73 -64 -93 -106 -17 -37 -17 -39 4 -79 35 -67 30
-79 -69 -174 -67 -65 -95 -100 -115 -144 -14 -32 -25 -66 -25 -77 0 -11 -6
-20 -13 -20 -10 0 -11 16 -7 68 7 72 13 87 70 172 75 111 61 155 -77 242 -26
17 -49 25 -57 21 -7 -5 -48 -45 -90 -91 -73 -78 -116 -150 -116 -193 0 -50
-32 -95 -108 -151 -42 -31 -79 -55 -81 -52 -4 3 32 57 94 142 13 18 29 59 36
90 17 79 31 103 104 182 122 134 126 205 20 404 -62 117 -69 127 -82 110 -19
-26 -53 -144 -53 -185 0 -44 -13 -28 -34 44 -10 31 -22 57 -27 57 -18 0 -29
-38 -19 -65 30 -80 1 -141 -116 -245 -84 -74 -114 -121 -114 -179 0 -49 -16
-62 -31 -24 -19 50 3 111 75 208 102 136 99 129 106 223 9 102 29 148 89 206
52 50 66 91 51 145 -6 23 -15 41 -20 41 -6 0 -30 -20 -54 -44 -24 -25 -67 -59
-95 -76 -46 -29 -52 -37 -66 -88 -32 -118 -68 -166 -147 -191 -47 -15 -49 -19
-102 -140 -24 -56 -57 -118 -71 -137 l-28 -36 22 -38 c27 -49 26 -63 -9 -135
-17 -33 -30 -67 -30 -77 0 -10 -4 -18 -10 -18 -6 0 -10 40 -10 99 0 82 -3 103
-19 122 l-19 24 -27 -25 c-67 -62 -248 -322 -261 -377 -4 -13 -13 -23 -20 -23
-11 0 -12 5 -5 18 5 9 16 52 26 94 16 74 61 158 84 158 20 0 34 74 28 149 -5
69 -41 192 -56 191 -7 -1 -55 -80 -108 -177 -25 -45 -38 -86 -47 -150 -16
-109 -30 -136 -94 -191 -55 -45 -68 -51 -58 -26 4 10 11 44 16 78 5 34 14 80
19 104 4 23 5 45 0 48 -12 7 -89 -73 -89 -92 0 -55 -25 -96 -88 -146 -36 -28
-118 -102 -183 -165 -65 -63 -123 -112 -129 -108 -5 3 -29 34 -52 68 -23 34
-78 114 -123 177 -171 242 -315 450 -315 455 0 3 234 5 520 5 l521 0 22 24
c12 13 61 72 107 130 57 71 92 106 105 106 11 0 53 -30 94 -68 53 -49 86 -72
118 -80 59 -16 77 -5 112 71 36 75 52 95 113 135 48 33 106 95 125 134 6 13
23 49 36 80 19 42 36 63 66 82 59 37 100 82 165 179 32 48 60 87 62 87 1 0 36
-43 77 -94z m-1848 -1800 c7 -17 32 -88 56 -158 24 -71 46 -128 49 -128 3 0
27 66 54 148 27 81 52 152 57 158 5 6 39 10 76 10 l68 -1 3 -247 2 -248 -50 0
-50 0 -2 167 -3 167 -48 -139 c-72 -212 -63 -195 -111 -195 l-42 0 -21 63
c-12 34 -37 107 -57 162 l-35 100 0 -162 -1 -163 -55 0 -55 0 0 244 c0 186 3
245 13 249 6 2 41 4 75 5 62 0 64 -1 77 -32z m1125 19 c8 -10 11 -50 8 -125
-1 -60 0 -110 3 -110 4 0 30 25 60 55 53 55 54 55 113 55 l60 0 -63 -64 c-43
-43 -62 -70 -58 -80 4 -9 33 -56 67 -105 33 -50 60 -95 60 -101 0 -5 -23 -10
-53 -10 l-54 0 -47 75 c-26 41 -51 75 -54 75 -23 -1 -34 -22 -34 -61 1 -83 -3
-89 -53 -89 l-45 0 0 243 c0 134 2 246 5 249 12 11 74 6 85 -7z m1958 -37 l3
-48 -75 0 -76 0 -2 -197 -3 -198 -52 -3 -53 -3 0 200 0 201 -75 0 -75 0 0 43
c0 24 2 46 5 49 3 2 94 4 202 4 l198 -1 3 -47z m522 36 c6 -6 10 -24 8 -40 -3
-27 -6 -29 -50 -32 l-48 -3 0 39 c0 21 2 41 5 44 10 10 74 3 85 -8z m-2794
-139 c37 -24 42 -42 46 -197 l3 -148 -47 0 c-35 0 -48 4 -48 15 0 11 -8 11
-42 -5 -68 -31 -127 -23 -175 22 -18 16 -23 33 -23 68 0 66 26 88 137 111 101
22 111 29 95 64 -11 24 -17 26 -60 23 -38 -2 -49 -7 -57 -25 -8 -19 -18 -23
-52 -23 -40 0 -43 2 -43 26 0 32 49 81 88 87 48 9 154 -2 178 -18z m979 -6
c59 -41 82 -103 70 -195 -12 -99 -104 -165 -208 -150 -115 17 -179 125 -147
246 14 52 75 116 117 123 57 10 134 -1 168 -24z m486 21 c64 -18 74 -44 77
-212 l4 -148 -51 0 -51 0 0 115 c0 66 -5 125 -12 140 -22 49 -98 42 -118 -11
-6 -14 -10 -75 -10 -135 l0 -110 -47 3 -48 3 -3 178 -2 177 44 0 c30 0 48 -5
53 -15 8 -13 14 -12 48 5 44 23 64 24 116 10z m1104 -39 l0 -43 -39 -3 c-29
-1 -46 -10 -63 -29 -21 -25 -23 -36 -23 -137 l0 -109 -50 0 -50 0 0 180 0 180
45 0 c38 0 45 -3 45 -20 0 -22 15 -27 26 -9 10 16 66 39 89 36 17 -2 20 -9 20
-46z m683 22 c49 -37 66 -70 70 -139 7 -113 -33 -186 -114 -204 -40 -10 -108
2 -119 20 -16 26 -25 3 -25 -65 l0 -75 -50 0 -50 0 2 238 3 237 39 3 c27 2 42
-1 48 -11 7 -13 13 -12 45 5 46 23 113 20 151 -9z m-453 -163 l0 -175 -47 -3
c-37 -2 -47 0 -50 14 -2 9 -2 91 0 181 l3 164 47 -3 47 -3 0 -175z m-2230
-627 c3 -15 12 -31 18 -35 9 -6 9 -12 0 -28 -19 -29 -16 -42 7 -35 24 7 26 -7
5 -25 -23 -19 -19 -42 8 -40 37 3 38 1 22 -31 -17 -33 -13 -51 7 -31 16 16 28
15 28 -2 0 -8 -14 -26 -30 -39 -33 -28 -26 -41 15 -31 19 5 25 2 25 -10 0 -19
-35 -56 -52 -56 -9 0 -9 -3 1 -9 9 -6 24 -5 39 0 34 13 39 4 19 -30 -22 -37
-21 -44 2 -31 30 15 34 13 26 -17 -7 -30 -31 -52 -58 -53 -10 0 -16 -4 -13 -9
3 -5 15 -7 25 -4 24 6 36 -13 21 -32 -10 -12 -10 -15 2 -15 8 0 19 5 25 11 9
9 21 6 48 -11 28 -17 39 -20 48 -11 9 9 9 14 0 19 -16 10 -33 57 -33 93 0 26
2 29 19 19 11 -5 24 -10 30 -10 16 0 13 32 -5 58 -12 17 -13 26 -5 36 6 7 9
21 5 30 -4 11 -1 16 11 16 14 0 16 6 11 31 -4 21 -1 35 9 46 8 8 15 25 15 39
0 13 5 24 10 24 6 0 10 -10 10 -23 0 -12 7 -33 16 -45 10 -15 12 -27 6 -39 -7
-12 -4 -22 9 -37 23 -24 25 -79 4 -96 -26 -21 -19 -41 13 -34 15 4 32 7 37 8
16 2 5 -38 -15 -55 -13 -11 -16 -19 -8 -27 7 -7 4 -14 -11 -24 -11 -7 -21 -20
-21 -30 0 -15 3 -15 41 0 32 12 42 13 49 3 8 -13 -15 -71 -29 -71 -4 0 -16 -7
-27 -16 -19 -15 -18 -15 3 -11 13 3 26 1 29 -5 3 -5 19 -6 35 -3 16 4 29 2 29
-3 0 -18 -53 -62 -74 -62 -17 0 -18 -2 -6 -10 8 -5 27 -10 41 -10 14 0 34 -9
44 -20 21 -23 53 -26 61 -6 3 8 -6 25 -20 39 -45 45 -28 111 18 68 22 -21 46
-28 46 -14 0 4 -11 18 -24 32 -30 32 -45 81 -24 81 7 0 23 -7 35 -15 31 -22
39 -1 14 34 -29 40 -27 59 4 53 28 -5 30 1 13 48 -9 28 -8 35 5 45 10 7 17 17
17 23 0 6 5 23 11 39 10 28 10 28 30 -27 24 -66 24 -65 15 -113 -7 -36 -6 -38
13 -28 26 15 31 14 31 -5 0 -9 -11 -29 -25 -46 -20 -23 -23 -33 -15 -49 8 -14
17 -18 34 -13 31 7 42 -28 16 -51 -10 -9 -16 -23 -13 -32 4 -9 -2 -16 -16 -20
-29 -7 -21 -27 12 -31 15 -2 27 -10 27 -18 0 -16 26 -19 35 -4 9 15 25 12 25
-5 0 -26 -31 -65 -52 -65 -11 0 -18 -5 -15 -12 3 -8 19 -12 46 -10 30 2 41 -1
41 -12 0 -22 -29 -46 -61 -53 -16 -3 -29 -9 -29 -14 0 -15 49 -21 81 -10 42
14 46 8 26 -34 -9 -20 -17 -44 -17 -54 0 -10 -12 -23 -26 -29 -34 -16 -21 -33
23 -29 30 3 37 10 54 46 10 23 23 40 28 37 13 -8 43 -106 37 -122 -7 -17 5
-18 39 -2 22 10 23 13 11 27 -7 9 -17 27 -21 40 -7 23 -6 23 29 17 42 -8 45
-2 11 30 -14 13 -25 30 -25 39 0 9 9 15 25 15 27 0 34 15 10 24 -8 3 -15 12
-15 21 0 8 7 15 15 15 18 0 20 21 3 38 -9 9 -9 12 0 12 7 0 12 7 12 15 0 8 4
15 9 15 8 0 11 11 27 102 7 41 24 42 24 3 0 -23 6 -40 36 -112 24 -55 27 -88
10 -102 -23 -19 -20 -31 9 -31 32 0 34 -31 3 -59 -19 -18 -19 -21 -5 -27 10
-3 24 -4 32 -1 8 4 17 2 21 -4 8 -14 -23 -59 -41 -59 -29 0 -14 -19 18 -22 20
-2 32 -8 32 -18 0 -8 -15 -18 -32 -24 -18 -5 -33 -12 -33 -16 0 -10 37 -20 72
-20 25 0 27 3 22 29 -3 16 -1 32 5 35 5 4 8 12 5 19 -3 8 2 27 11 43 8 16 15
47 15 69 0 30 3 36 10 25 5 -8 10 -28 10 -45 0 -16 7 -41 15 -55 8 -14 14 -35
15 -47 0 -17 6 -23 23 -23 37 0 40 11 11 41 -30 31 -26 48 11 41 31 -5 32 4 3
27 -21 18 -20 59 2 46 13 -8 50 3 50 15 0 5 -8 11 -18 15 -16 4 -42 43 -42 61
0 3 14 3 30 -1 35 -8 35 -7 15 31 -17 34 -19 54 -5 54 6 0 10 9 10 20 0 11 5
20 11 20 6 0 8 9 4 20 -4 12 -1 28 7 37 7 9 18 28 25 42 l11 26 1 -25 c1 -14
8 -36 17 -48 8 -12 12 -27 9 -33 -4 -5 1 -19 10 -29 10 -11 15 -26 12 -35 -4
-8 -2 -15 3 -15 15 0 12 -26 -5 -40 -24 -20 -17 -33 15 -28 38 6 39 -10 4 -45
-31 -31 -23 -51 18 -45 25 4 29 2 26 -16 -2 -12 -13 -25 -25 -31 -31 -13 -29
-23 8 -32 l31 -8 -128 -190 c-110 -164 -307 -452 -517 -755 -32 -47 -98 -142
-145 -212 -66 -97 -90 -124 -98 -115 -11 11 -188 268 -368 532 -37 55 -108
159 -157 230 -50 72 -98 141 -107 155 -20 31 -408 599 -474 695 -46 67 -47 70
-27 77 21 8 21 9 -7 36 l-29 27 28 3 c27 3 37 17 16 24 -7 2 -13 16 -15 31 -2
24 0 26 22 21 13 -3 32 -3 41 0 15 6 11 12 -21 40 -44 37 -42 59 4 49 36 -7
38 2 8 34 -18 19 -20 26 -9 32 8 5 12 19 9 34 -4 19 -1 24 10 20 11 -5 13 -1
7 15 -4 14 -2 22 5 22 7 0 10 6 7 14 -3 8 1 20 9 26 8 7 14 25 14 41 0 49 15
32 39 -43 13 -40 28 -79 33 -85 7 -9 7 -18 -2 -28 -10 -12 -10 -15 4 -15 22 0
20 -9 -6 -37 -27 -29 -17 -41 22 -26 42 16 40 -6 -4 -51 -19 -19 -32 -37 -29
-40 9 -9 36 -7 52 3 12 8 12 13 3 24 -10 12 -7 18 14 32 19 12 25 23 21 41 -3
18 0 24 15 24 17 0 18 2 3 30 -22 42 -19 51 12 44 23 -6 25 -5 20 15 -4 11
-10 31 -14 43 -5 18 -3 20 13 14 42 -18 54 -18 54 -3 0 8 -9 17 -19 20 -11 2
-27 19 -36 37 -16 32 -16 33 1 25 11 -4 30 -10 44 -12 22 -4 23 -3 9 9 -9 7
-19 26 -23 42 -7 27 -5 28 19 22 28 -7 33 7 10 30 -23 23 -18 37 10 32 29 -6
31 -1 8 24 -14 16 -15 20 -1 36 8 9 18 30 22 45 8 33 21 28 31 -10z"/>
<path d="M730 4694 c0 -5 294 -428 312 -449 14 -16 166 150 243 265 70 104
115 177 115 186 0 2 -151 4 -335 4 -184 0 -335 -3 -335 -6z"/>
<path d="M4240 4695 c0 -2 24 -28 53 -57 29 -29 106 -118 171 -198 132 -161
195 -230 211 -230 5 1 27 26 49 58 216 318 265 390 275 410 l12 22 -386 0
c-212 0 -385 -2 -385 -5z"/>
<path d="M1610 3488 c-53 -12 -70 -24 -70 -49 0 -45 68 -65 109 -31 12 9 24
34 28 55 6 41 7 41 -67 25z"/>
<path d="M2541 3598 c-40 -42 -40 -132 1 -175 21 -23 59 -29 93 -17 44 17 60
125 25 182 -17 27 -25 32 -59 32 -28 0 -46 -6 -60 -22z"/>
<path d="M4832 3613 c-36 -14 -55 -115 -31 -166 11 -25 47 -47 75 -47 9 0 29
13 45 29 24 24 29 38 29 76 0 87 -52 135 -118 108z"/>
<path d="M2082 2283 c-6 -2 -10 -9 -6 -14 8 -14 48 -11 70 6 18 13 17 14 -16
14 -19 0 -41 -3 -48 -6z"/>
<path d="M2426 2281 c-4 -5 -3 -17 0 -26 6 -15 3 -16 -26 -10 -25 5 -31 4 -28
-6 5 -15 88 -25 115 -15 12 5 10 12 -9 35 -23 30 -42 38 -52 22z"/>
<path d="M2105 2170 c4 -6 11 -8 16 -5 14 9 11 15 -7 15 -8 0 -12 -5 -9 -10z"/>
<path d="M2430 2156 c0 -18 31 -29 44 -16 8 8 7 14 -4 20 -22 14 -40 12 -40
-4z"/>
<path d="M2705 2041 c-25 -5 -27 -8 -12 -14 10 -4 35 -7 54 -7 30 0 34 2 23
15 -13 16 -18 16 -65 6z"/>
<path d="M2720 1933 c0 -10 59 -50 85 -58 13 -4 6 6 -19 29 -37 33 -66 46 -66
29z"/>
<path d="M3125 1719 c-10 -15 1 -22 24 -14 12 3 19 11 16 16 -8 12 -32 11 -40
-2z"/>
<path d="M3090 1682 c0 -12 34 -42 48 -42 19 0 14 28 -7 40 -24 12 -41 13 -41
2z"/>
<path d="M3235 1660 c-3 -5 0 -13 9 -16 21 -8 71 -1 71 11 0 14 -72 19 -80 5z"/>
<path d="M3670 1660 c-8 -5 -23 -11 -32 -14 -10 -3 -18 -10 -18 -16 0 -17 36
-11 55 10 20 22 18 32 -5 20z"/>
<path d="M3485 1610 c-4 -7 -3 -16 3 -22 14 -14 45 -2 40 15 -6 16 -34 21 -43
7z"/>
<path d="M3246 1555 c-3 -8 4 -21 17 -30 24 -17 57 -20 57 -5 0 6 -7 10 -15
10 -8 0 -20 9 -27 20 -15 24 -24 25 -32 5z"/>
<path d="M3120 1550 c0 -5 7 -10 15 -10 8 0 15 5 15 10 0 6 -7 10 -15 10 -8 0
-15 -4 -15 -10z"/>
<path d="M3482 1538 c3 -7 17 -15 33 -16 25 -3 27 -2 16 12 -16 19 -55 22 -49
4z"/>
</g>
</svg>
